<?xml version="1.0" encoding="UTF-8" standalone="no"?>
<!-- Created with Inkscape (http://www.inkscape.org/) -->

<svg
   version="1.1"
   id="svg2"
   width="96"
   height="96"
   viewBox="0 0 96 96"
   sodipodi:docname="pictograph-blue-cloud.svg"
   inkscape:version="1.2.2 (b0a8486541, 2022-12-01)"
   xmlns:inkscape="http://www.inkscape.org/namespaces/inkscape"
   xmlns:sodipodi="http://sodipodi.sourceforge.net/DTD/sodipodi-0.dtd"
   xmlns="http://www.w3.org/2000/svg"
   xmlns:svg="http://www.w3.org/2000/svg">
  <defs
     id="defs6" />
  <sodipodi:namedview
     id="namedview4"
     pagecolor="#ffffff"
     bordercolor="#999999"
     borderopacity="1"
     inkscape:showpageshadow="0"
     inkscape:pageopacity="0"
     inkscape:pagecheckerboard="0"
     inkscape:deskcolor="#d1d1d1"
     showgrid="false"
     inkscape:zoom="17.072917"
     inkscape:cx="48"
     inkscape:cy="48"
     inkscape:window-width="3780"
     inkscape:window-height="2120"
     inkscape:window-x="0"
     inkscape:window-y="0"
     inkscape:window-maximized="1"
     inkscape:current-layer="g10">
    <inkscape:page
       x="0"
       y="0"
       id="page8"
       width="96"
       height="96" />
  </sodipodi:namedview>
  <g
     id="g10"
     inkscape:groupmode="layer"
     inkscape:label="Page 1"
     transform="matrix(1.3333333,0,0,1.3333333,0,2.4e-6)">
    <g
       id="g12">
      <g
         id="g14">
        <path
           d="m 57.75,22.5 c -0.602,0 -1.125,0.074 -1.727,0.227 0.153,-0.528 0.227,-1.125 0.227,-1.727 0,-4.125 -3.375,-7.5 -7.5,-7.5 -1.727,0 -3.375,0.602 -4.648,1.574 C 43.5,11.625 40.426,9 36.75,9 33.301,9 30.375,11.398 29.477,14.625 28.125,12.602 25.875,11.25 23.25,11.25 c -4.125,0 -7.5,3.375 -7.5,7.5 0,0.602 0.074,1.125 0.227,1.727 -0.602,-0.153 -1.125,-0.227 -1.727,-0.227 -4.125,0 -7.5,3.375 -7.5,7.5 0,4.125 3.375,7.5 7.5,7.5 0,0 0,0 0.074,0 0.375,3.824 3.602,6.75 7.426,6.75 1.727,0 3.301,-0.602 4.574,-1.574 0,0.222 -0.074,0.523 -0.074,0.824 0,4.125 3.375,7.5 7.5,7.5 3.898,0 7.125,-3 7.5,-6.824 1.352,1.875 3.523,3.074 6,3.074 4.125,0 7.5,-3.375 7.5,-7.5 0,-0.227 0,-0.449 0,-0.676 0.898,0.375 1.949,0.676 3,0.676 4.125,0 7.5,-3.375 7.5,-7.5 0,-4.125 -3.375,-7.5 -7.5,-7.5 z"
           style="fill:#00b0f0;fill-opacity:1;fill-rule:nonzero;stroke:#000000;stroke-width:0.857145;stroke-linecap:butt;stroke-linejoin:miter;stroke-miterlimit:4;stroke-dasharray:none;stroke-opacity:1"
           id="path16" />
      </g>
      <g
         id="g18">
        <path
           d="m 26.25,51.75 c 0,2.484 -2.016,4.5 -4.5,4.5 -2.484,0 -4.5,-2.016 -4.5,-4.5 0,-2.484 2.016,-4.5 4.5,-4.5 2.484,0 4.5,2.016 4.5,4.5 z"
           style="fill:#00b0f0;fill-opacity:1;fill-rule:nonzero;stroke:#000000;stroke-width:0.857145;stroke-linecap:butt;stroke-linejoin:miter;stroke-miterlimit:4;stroke-dasharray:none;stroke-opacity:1"
           id="path20" />
      </g>
      <g
         id="g22">
        <path
           d="m 16.125,59.625 c 0,1.863 -1.512,3.375 -3.375,3.375 -1.863,0 -3.375,-1.512 -3.375,-3.375 0,-1.863 1.512,-3.375 3.375,-3.375 1.863,0 3.375,1.512 3.375,3.375 z"
           style="fill:#00b0f0;fill-opacity:1;fill-rule:nonzero;stroke:#000000;stroke-width:0.857145;stroke-linecap:butt;stroke-linejoin:miter;stroke-miterlimit:4;stroke-dasharray:none;stroke-opacity:1"
           id="path24" />
      </g>
    </g>
  </g>
</svg>
